# xmcd
#
# Track frame offsets:
#	150
#	16342
#	41622
#	56837
#	72437
#	99390
#	123285
#	143887
#	163872
#	184280
#	216705
#	240277
#	258880
#	284350
#	298857
#	320210
#
# Disc length: 4534 seconds
#
# Revision: 1
# Processed by: cddbd v1.5.2PL0 Copyright (c) Steve Scherf et al.
# Submitted via: EZCDAudioConverter 8.3.2.1
#
DISCID=0011b410
DTITLE=Tavares - Anthology [CD2]
DYEAR=2004
DGENRE=R&B, Funk, Soul
TTITLE0=Whodunit
TTITLE1=(Goodnight My Love) Pleasant Dreams
TTITLE2=Fool Of The Year
TTITLE3=More Than A Woman
TTITLE4=The Ghost Of Love
TTITLE5=Timber
TTITLE6=Never Had A Love Like This Before
TTITLE7=Straight From The Heart
TTITLE8=Madam Butterfly
TTITLE9=Bad Times (Theme From Defiance)
TTITLE10=I Can't Go On Living Without You
TTITLE11=Why Can't We Fall In Love
TTITLE12=Love Uprising
TTITLE13=Loneliness
TTITLE14=Turn Out The Nightlight
TTITLE15=Loveline
EXTD=
EXTT0=
EXTT1=
EXTT2=
EXTT3=
EXTT4=
EXTT5=
EXTT6=
EXTT7=
EXTT8=
EXTT9=
EXTT10=
EXTT11=
EXTT12=
EXTT13=
EXTT14=
EXTT15=
PLAYORDER=
